<?xml version="1.0" standalone="no"?>
<!DOCTYPE svg PUBLIC "-//W3C//DTD SVG 20010904//EN"
 "http://www.w3.org/TR/2001/REC-SVG-20010904/DTD/svg10.dtd">
<svg version="1.0" xmlns="http://www.w3.org/2000/svg"
 width="181.000000pt" height="181.000000pt" viewBox="0 0 181.000000 181.000000"
 preserveAspectRatio="xMidYMid meet">
<metadata>
Created by potrace 1.14, written by Peter Selinger 2001-2017
</metadata>
<g transform="translate(0.000000,181.000000) scale(0.100000,-0.100000)"
fill="#000000" stroke="none">
<path d="M1025 1746 c-301 -78 -362 -98 -480 -158 -135 -68 -155 -119 -83
-224 39 -59 86 -94 124 -94 9 0 14 -6 12 -12 -3 -7 -27 -79 -54 -159 l-49
-146 -60 -44 c-60 -44 -85 -64 -157 -128 -30 -26 -36 -37 -27 -47 6 -8 15 -12
19 -9 4 3 10 -4 13 -15 4 -14 10 -18 22 -14 11 5 25 -2 41 -19 l24 -27 -30
-97 c-17 -54 -35 -109 -40 -123 -23 -61 -60 -231 -56 -253 5 -26 51 -79 61
-69 3 4 30 7 60 8 30 1 61 7 69 13 8 7 26 48 40 92 14 44 41 110 58 147 34 69
35 71 37 98 0 8 5 13 10 10 5 -4 7 3 4 14 -4 14 2 22 21 30 14 5 26 16 26 23
0 8 13 32 29 54 16 22 41 64 55 94 24 52 76 102 146 140 14 8 27 17 30 20 3 3
32 23 65 44 65 41 286 198 307 218 7 7 46 39 87 72 103 83 194 174 221 224
l24 41 -33 102 c-26 85 -39 110 -73 145 -60 61 -117 85 -213 89 -69 3 -103 -2
-250 -40z m122 -330 c-59 -57 -127 -117 -150 -132 -23 -16 -44 -31 -47 -35
-10 -11 -77 -59 -83 -59 -3 0 5 26 19 58 100 227 88 207 149 227 31 9 62 14
71 11 8 -3 13 -2 9 3 -5 9 73 28 120 29 14 1 -13 -31 -88 -102z"/>
</g>
</svg>
